HIERARCHY
ROOT joint_0
{
	OFFSET 0.000000 0.000000 0.000000
	CHANNELS 6 Xposition Yposition Zposition Zrotation Yrotation Xrotation 
	JOINT joint_1
	{
		OFFSET 6.590088 -1.122192 114.019043
		CHANNELS 3 Zrotation Yrotation Xrotation
		JOINT joint_2
		{
			OFFSET -5.956055 -0.820435 104.151001
			CHANNELS 3 Zrotation Yrotation Xrotation
			JOINT joint_3
			{
				OFFSET -7.343506 -1.103027 103.942993
				CHANNELS 3 Zrotation Yrotation Xrotation
				JOINT joint_4
				{
					OFFSET 3.109131 -2.857056 147.715942
					CHANNELS 3 Zrotation Yrotation Xrotation
					JOINT joint_5
					{
						OFFSET 28.592285 -2.852295 87.703979
						CHANNELS 3 Zrotation Yrotation Xrotation
						End Site
						{
							OFFSET 0.000000 0.000000 0.000000
						}
					}
				}
				JOINT joint_6
				{
					OFFSET -0.332520 -33.687378 82.401978
					CHANNELS 3 Zrotation Yrotation Xrotation
					JOINT joint_7
					{
						OFFSET -7.397461 -168.719177 -22.750977
						CHANNELS 3 Zrotation Yrotation Xrotation
						JOINT joint_8
						{
							OFFSET 17.065918 -24.903137 -272.721069
							CHANNELS 3 Zrotation Yrotation Xrotation
							JOINT joint_9
							{
								OFFSET 33.311279 -37.031616 -278.192993
								CHANNELS 3 Zrotation Yrotation Xrotation
								End Site
								{
									OFFSET 0.000000 0.000000 0.000000
								}
							}
						}
					}
				}
				JOINT joint_10
				{
					OFFSET 3.914307 30.461670 83.552979
					CHANNELS 3 Zrotation Yrotation Xrotation
					JOINT joint_11
					{
						OFFSET 15.543701 166.845459 -30.963013
						CHANNELS 3 Zrotation Yrotation Xrotation
						JOINT joint_12
						{
							OFFSET 35.734863 35.017700 -269.786011
							CHANNELS 3 Zrotation Yrotation Xrotation
							JOINT joint_13
							{
								OFFSET 70.506592 13.977783 -273.320007
								CHANNELS 3 Zrotation Yrotation Xrotation
								End Site
								{
									OFFSET 0.000000 0.000000 0.000000
								}
							}
						}
					}
				}
			}
		}
	}
	JOINT joint_14
	{
		OFFSET -0.314697 -95.093994 -116.004028
		CHANNELS 3 Zrotation Yrotation Xrotation
		JOINT joint_15
		{
			OFFSET -22.490723 2.017883 -455.510986
			CHANNELS 3 Zrotation Yrotation Xrotation
			JOINT joint_16
			{
				OFFSET -46.427490 7.144104 -496.360985
				CHANNELS 3 Zrotation Yrotation Xrotation
				JOINT joint_17
				{
					OFFSET 209.055420 -37.122803 -85.191002
					CHANNELS 3 Zrotation Yrotation Xrotation
					End Site
					{
						OFFSET 0.000000 0.000000 0.000000
					}
				}
			}
		}
	}
	JOINT joint_18
	{
		OFFSET 5.652832 94.642578 -116.244019
		CHANNELS 3 Zrotation Yrotation Xrotation
		JOINT joint_19
		{
			OFFSET -12.379883 -7.332642 -455.843994
			CHANNELS 3 Zrotation Yrotation Xrotation
			JOINT joint_20
			{
				OFFSET -45.227051 -8.172241 -496.457985
				CHANNELS 3 Zrotation Yrotation Xrotation
				JOINT joint_21
				{
					OFFSET 210.522949 -11.530396 -88.809004
					CHANNELS 3 Zrotation Yrotation Xrotation
					End Site
					{
						OFFSET 0.000000 0.000000 0.000000
					}
				}
			}
		}
	}
}
MOTION
Frames: 10
Frame Time: 0.016667
-2583.082275 1007.832947 1183.218018 -1.065436 -0.434799 -0.339372 0.108766 2.619511 1.133543 -0.008754 -0.473834 -0.250151 0.032808 0.551045 0.197448 0.012890 -0.493894 -0.088184 0.000000 0.000000 0.000000 -0.993064 -0.492891 0.319075 -0.095669 -0.558531 -0.950223 -0.281761 2.189591 0.070955 0.000000 0.000000 0.000000 2.377519 -0.322140 0.160927 -0.365131 -0.593143 -2.381809 0.896794 3.921937 2.732890 0.000000 0.000000 0.000000 -0.231441 -1.290906 -2.565904 -0.277547 -2.024079 -1.715402 -0.413542 5.035948 0.728186 0.000000 0.000000 0.000000 2.408773 -0.547611 2.338796 2.406254 1.110557 1.614731 2.483535 0.279543 1.056695 0.000000 0.000000 0.000000 
-2583.059082 1007.860657 1183.182983 -1.139964 -0.455506 -0.321333 0.108318 2.625872 1.155227 -0.011029 -0.477741 -0.254090 0.031068 0.555916 0.200230 0.013455 -0.459392 -0.086610 0.000000 0.000000 0.000000 -0.988115 -0.463820 0.375371 -0.102725 -0.523589 -0.991521 -0.286113 2.226334 0.074801 0.000000 0.000000 0.000000 2.359386 -0.331722 0.112311 -0.359901 -0.604980 -2.360539 0.905369 3.926241 2.763648 0.000000 0.000000 0.000000 -0.200481 -1.341185 -2.567895 -0.244092 -1.907594 -1.753166 -0.386170 5.018209 0.736145 0.000000 0.000000 0.000000 2.429253 -0.505736 2.268813 2.423012 1.094642 1.701506 2.507912 0.263262 1.065982 0.000000 0.000000 0.000000 
-2583.044922 1007.892151 1183.147949 -1.217509 -0.474606 -0.304554 0.109239 2.633662 1.175500 -0.011833 -0.480106 -0.257282 0.030711 0.559016 0.202969 0.014008 -0.428962 -0.085384 0.000000 0.000000 0.000000 -0.977673 -0.436284 0.429201 -0.109491 -0.489646 -1.031450 -0.290345 2.265146 0.081954 0.000000 0.000000 0.000000 2.343358 -0.342477 0.064407 -0.354781 -0.618365 -2.338895 0.913602 3.928588 2.793451 0.000000 0.000000 0.000000 -0.169668 -1.395280 -2.569684 -0.210882 -1.788566 -1.788229 -0.358820 4.996978 0.743472 0.000000 0.000000 0.000000 2.450952 -0.467450 2.203932 2.441270 1.081541 1.780581 2.533048 0.248091 1.075650 0.000000 0.000000 0.000000 
-2583.036133 1007.927429 1183.114014 -1.296386 -0.490965 -0.288789 0.111887 2.641993 1.195355 -0.010962 -0.482838 -0.261399 0.032086 0.562279 0.205531 0.013764 -0.404648 -0.082314 0.000000 0.000000 0.000000 -0.965140 -0.409943 0.481823 -0.115983 -0.456744 -1.070514 -0.294418 2.305817 0.092519 0.000000 0.000000 0.000000 2.326260 -0.354328 0.018001 -0.349697 -0.632599 -2.316280 0.921262 3.928844 2.821409 0.000000 0.000000 0.000000 -0.139476 -1.452820 -2.573013 -0.178614 -1.669352 -1.818076 -0.331902 4.973441 0.750211 0.000000 0.000000 0.000000 2.472897 -0.432810 2.144612 2.460134 1.069304 1.850620 2.557913 0.233856 1.085261 0.000000 0.000000 0.000000 
-2583.015137 1007.960144 1183.078003 -1.371278 -0.505727 -0.272951 0.114457 2.648369 1.212424 -0.009894 -0.484499 -0.264270 0.033508 0.564862 0.207431 0.013295 -0.381352 -0.078644 0.000000 0.000000 0.000000 -0.950397 -0.384033 0.532333 -0.122331 -0.424203 -1.106945 -0.298626 2.346537 0.102041 0.000000 0.000000 0.000000 2.311970 -0.366294 -0.028503 -0.344886 -0.647566 -2.293161 0.928480 3.929208 2.847758 0.000000 0.000000 0.000000 -0.111190 -1.510056 -2.579784 -0.148770 -1.551491 -1.841376 -0.306692 4.948183 0.755949 0.000000 0.000000 0.000000 2.492905 -0.401876 2.090206 2.477355 1.061095 1.911712 2.580410 0.220109 1.093910 0.000000 0.000000 0.000000 
-2582.978271 1007.993347 1183.042969 -1.441864 -0.518736 -0.256249 0.117593 2.653946 1.227209 -0.008132 -0.487681 -0.267205 0.035622 0.568679 0.208890 0.012353 -0.358871 -0.073598 0.000000 0.000000 0.000000 -0.935971 -0.358430 0.580931 -0.128550 -0.392240 -1.140439 -0.303097 2.387629 0.109804 0.000000 0.000000 0.000000 2.298666 -0.378509 -0.076456 -0.340093 -0.663257 -2.268335 0.935280 3.928871 2.872753 0.000000 0.000000 0.000000 -0.084589 -1.566477 -2.592796 -0.121419 -1.435785 -1.855134 -0.282970 4.922206 0.760954 0.000000 0.000000 0.000000 2.510451 -0.375350 2.040956 2.492429 1.058410 1.961756 2.599869 0.207176 1.101339 0.000000 0.000000 0.000000 
-2582.930176 1008.023926 1183.005981 -1.508535 -0.530483 -0.239439 0.121310 2.658187 1.239055 -0.005533 -0.489242 -0.269335 0.038521 0.570990 0.210815 0.011231 -0.337976 -0.068150 0.000000 0.000000 0.000000 -0.921963 -0.333152 0.626753 -0.134553 -0.360926 -1.171248 -0.307617 2.428812 0.117279 0.000000 0.000000 0.000000 2.286043 -0.390883 -0.125516 -0.335440 -0.679459 -2.242402 0.941581 3.928112 2.896038 0.000000 0.000000 0.000000 -0.059829 -1.622461 -2.609443 -0.096445 -1.321033 -1.862126 -0.260895 4.894197 0.764928 0.000000 0.000000 0.000000 2.526076 -0.352096 1.996601 2.505878 1.059597 2.002861 2.616973 0.194391 1.107794 0.000000 0.000000 0.000000 
-2582.864746 1008.040039 1182.967041 -1.568203 -0.543165 -0.224698 0.124080 2.661910 1.249620 -0.003738 -0.492732 -0.270698 0.040554 0.574943 0.212176 0.010413 -0.318184 -0.063728 0.000000 0.000000 0.000000 -0.906683 -0.309987 0.673047 -0.140397 -0.331570 -1.201659 -0.312152 2.467899 0.122334 0.000000 0.000000 0.000000 2.274194 -0.402620 -0.174901 -0.330902 -0.695249 -2.216069 0.947410 3.927101 2.917653 0.000000 0.000000 0.000000 -0.037672 -1.674934 -2.622664 -0.073894 -1.207187 -1.869666 -0.241197 4.865150 0.767754 0.000000 0.000000 0.000000 2.539243 -0.328786 1.957012 2.517065 1.062712 2.041068 2.631646 0.182296 1.113268 0.000000 0.000000 0.000000 
-2582.781494 1008.037720 1182.925049 -1.618152 -0.556978 -0.213192 0.124685 2.662847 1.260481 -0.004048 -0.493589 -0.272660 0.040478 0.577270 0.213326 0.009765 -0.298369 -0.059816 0.000000 0.000000 0.000000 -0.889702 -0.288487 0.720654 -0.146076 -0.303606 -1.232184 -0.316411 2.502725 0.125034 0.000000 0.000000 0.000000 2.264925 -0.413378 -0.224700 -0.326640 -0.710791 -2.187917 0.952257 3.926593 2.935488 0.000000 0.000000 0.000000 -0.019263 -1.723199 -2.629362 -0.054624 -1.094386 -1.880271 -0.224942 4.835009 0.768990 0.000000 0.000000 0.000000 2.548994 -0.305396 1.922998 2.525025 1.067367 2.077704 2.643074 0.171021 1.117424 0.000000 0.000000 0.000000 
-2582.680908 1008.020935 1182.879028 -1.660885 -0.572225 -0.203726 0.124653 2.663609 1.269967 -0.004832 -0.495112 -0.273805 0.039843 0.579847 0.213975 0.009291 -0.279872 -0.056555 0.000000 0.000000 0.000000 -0.872445 -0.268559 0.767568 -0.151492 -0.277294 -1.261415 -0.320500 2.535010 0.126375 0.000000 0.000000 0.000000 2.255879 -0.423715 -0.274117 -0.322709 -0.725943 -2.160073 0.956521 3.926434 2.951133 0.000000 0.000000 0.000000 -0.003542 -1.767265 -2.632844 -0.037896 -0.982606 -1.891148 -0.211150 4.803218 0.768935 0.000000 0.000000 0.000000 2.556227 -0.281232 1.893728 2.530680 1.073670 2.111363 2.652024 0.159965 1.120554 0.000000 0.000000 0.000000 
